Coordinates
version=1
nRows=7
nColumns=40
inDegrees=yes

Units are S.I. units (second, meters, Newtons, ...)
Angles are in degrees.

endheader
time	pelvis_tilt	pelvis_list	pelvis_rotation	pelvis_tx	pelvis_ty	pelvis_tz	hip_flexion_r	hip_adduction_r	hip_rotation_r	knee_angle_r	knee_angle_r_beta	ankle_angle_r	subtalar_angle_r	mtp_angle_r	hip_flexion_l	hip_adduction_l	hip_rotation_l	knee_angle_l	knee_angle_l_beta	ankle_angle_l	subtalar_angle_l	mtp_angle_l	lumbar_extension	lumbar_bending	lumbar_rotation	arm_flex_r	arm_add_r	arm_rot_r	elbow_flex_r	pro_sup_r	wrist_flex_r	wrist_dev_r	arm_flex_l	arm_add_l	arm_rot_l	elbow_flex_l	pro_sup_l	wrist_flex_l	wrist_dev_l
      8.56500000	     -2.45395482	     -4.00753569	     -4.21983920	      1.04425156	      0.92990700	      0.47233437	     16.83476209	     -0.92690634	    -10.08211936	     20.84803225	     20.84803225	      8.44781347	      1.32989955	     -1.24105496	      1.10994010	     -9.51627463	    -13.18897921	     24.58662850	     24.58662850	     18.05554205	     -6.53717503	     -2.67198838	     -8.33278355	      4.08596156	      0.93235959	     -1.24181469	    -14.57102463	     -6.00095986	     41.64343951	     45.62788054	      0.00000000	      0.00000000	     11.46124493	    -13.88131264	    -14.65476878	     70.96928700	     47.64786366	      0.00000000	      0.00000000
      8.57800000	     -2.46408412	     -4.04495546	     -3.98803839	      1.04479052	      0.93038563	      0.47532051	     16.26672931	     -0.71829265	    -10.30247734	     20.60108207	     20.60108207	      8.75492154	      1.34257092	     -1.22993268	      2.15812678	    -10.02375280	    -12.22803326	     26.99605490	     26.99605490	     16.88128275	     -8.11636564	     -4.19993238	     -8.38172680	      4.15227112	      1.41608403	     -1.63799758	    -15.60575853	     -3.40014165	     46.07595555	     45.33443430	      0.00000000	      0.00000000	     11.80996787	    -13.56119080	    -14.11478543	     68.66456492	     47.57551051	      0.00000000	      0.00000000
      8.59100000	     -2.50102371	     -4.17240076	     -3.68966403	      1.04507145	      0.93080198	      0.47828991	     15.65178815	     -0.40561714	    -10.64343206	     20.20761121	     20.20761121	      8.98344897	      1.43289344	     -1.27389917	      3.61231984	    -10.75223290	    -11.34103073	     30.06059146	     30.06059146	     15.96708596	     -9.27486975	     -4.82576106	     -8.43582788	      4.21792103	      1.30461810	     -0.37817251	    -15.70413137	     -3.34533456	     47.07423008	     45.30474727	      0.00000000	      0.00000000	     11.29156279	    -13.49072847	    -13.87120909	     67.84804660	     47.54123952	      0.00000000	      0.00000000
      8.60400000	     -2.58301102	     -4.19239309	     -3.34552335	      1.04508312	      0.93101850	      0.48086240	     15.12523335	     -0.21976266	    -10.89233709	     19.82722124	     19.82722124	      9.07085810	      1.37274403	     -1.80114403	      5.27939643	    -11.20249242	     -9.98877162	     33.14373674	     33.14373674	     13.69337044	    -11.65196552	     -7.55060383	     -8.43526461	      4.30469219	      1.46502783	     -0.05153763	    -16.42873181	     -2.07226900	     50.45466211	     45.14380354	      0.00000000	      0.00000000	     11.43511938	    -13.24297367	    -13.43631501	     65.41496081	     47.47155455	      0.00000000	      0.00000000
      8.61700000	     -2.64847321	     -4.34105108	     -2.94638941	      1.04488863	      0.93115953	      0.48337355	     14.56124080	      0.09821414	    -11.23984794	     19.40980260	     19.40980260	      9.26372553	      1.38188065	     -1.86914242	      7.29401812	    -11.91254680	     -8.81204242	     36.89562288	     36.89562288	     12.20139712	    -12.90875687	     -8.18476206	     -8.49533056	      4.42955843	      1.33952319	      1.30539072	    -16.56401026	     -2.12523359	     51.58875434	     45.11636575	      0.00000000	      0.00000000	     10.89312950	    -13.09787464	    -13.20901229	     64.45446609	     47.43534837	      0.00000000	      0.00000000
      8.63000000	     -2.72009268	     -4.40500419	     -2.51983946	      1.04436092	      0.93114253	      0.48560480	     14.06971519	      0.32874682	    -11.46080309	     19.03517847	     19.03517847	      9.25012288	      1.12409805	     -2.61697359	      9.42773945	    -12.37409464	     -7.37459483	     40.56396814	     40.56396814	      9.44888124	    -15.11316455	    -10.48633594	     -8.58638196	      4.53174547	      1.62476705	      1.66873382	    -17.38564204	     -1.23385070	     55.22641837	     44.98099917	      0.00000000	      0.00000000	     11.27842527	    -12.68509032	    -12.83151706	     61.53621537	     47.36048740	      0.00000000	      0.00000000
      8.64300000	     -2.71797561	     -4.60213501	     -2.05416328	      1.04362023	      0.93112712	      0.48771867	     13.53254782	      0.67147005	    -11.80667513	     18.72402355	     18.72402355	      9.45345596	      1.04903874	     -2.67839647	     11.74378396	    -13.01523110	     -6.02587021	     44.63578963	     44.63578963	      7.49919272	    -16.11175677	    -10.55642951	     -8.81159921	      4.70072324	      1.56846825	      3.24223253	    -17.58980615	     -1.38987866	     56.32100538	     44.96034389	      0.00000000	      0.00000000	     10.78605312	    -12.43208757	    -12.63620055	     60.62890605	     47.32722360	      0.00000000	      0.00000000
